<svg aria-hidden="true" style="position: absolute; width: 0; height: 0; overflow: hidden;" version="1.1" xmlns="http://www.w3.org/2000/svg" xmlns:xlink="http://www.w3.org/1999/xlink">
<defs>
<symbol id="icon-decor-top" viewBox="0 0 51 32">
<path d="M11.498 28.221c-4.599 5.081-9.581 3.913-11.498 2.693l-4.744-6.151 0.402-24.643 27.457-6.915 27.538 6.513c-3.827 1.222-4.744 2.131-5.266 4.462-0.885 3.949-3.149 8.362-4.261 9.447-4.342 5.91-11.899 3.699-16.442 3.618s-7.598 1.206-9.286 4.543c-1.287 2.542-3.015 5.4-3.899 6.432z"></path>
</symbol>
<symbol id="icon-decor-bottom" viewBox="0 0 18 32">
<path d="M10.603 3.409c1.217 5.774 2.267 6.87 3.043 7 4.204 0.706 5.913-5.913 10.783-1.696s4.304 27.087-6.217 22.696c-10.522-4.391-10.957-9.696-11.826-11.783-0.696-1.67-2.928-3.623-3.957-4.391-4.765-4.209-1.435-10.159 0.826-12.609 1.942-2.145 6.13-4.991 7.348 0.783z"></path>
</symbol>
<symbol id="icon-grid" viewBox="0 0 32 32">
<path d="M0.394 0h7.415c0.218 0 0.394 0.177 0.394 0.394v7.415c0 0.218-0.177 0.394-0.394 0.394h-7.415c-0.217 0-0.394-0.177-0.394-0.394v-7.415c0-0.217 0.177-0.394 0.394-0.394zM24.191 23.796h7.415c0.217 0 0.394 0.177 0.394 0.394v7.416c0 0.217-0.177 0.394-0.394 0.394h-7.415c-0.218 0-0.394-0.177-0.394-0.394v-7.416c0-0.217 0.177-0.394 0.394-0.394zM24.191 11.898h7.415c0.217 0 0.394 0.178 0.394 0.394v7.415c0 0.218-0.177 0.394-0.394 0.394h-7.415c-0.218 0-0.394-0.177-0.394-0.394v-7.415c0-0.217 0.177-0.394 0.394-0.394zM24.191 0h7.415c0.217 0 0.394 0.177 0.394 0.394v7.415c0 0.218-0.177 0.394-0.394 0.394h-7.415c-0.218 0-0.394-0.177-0.394-0.394v-7.415c0-0.217 0.177-0.394 0.394-0.394zM12.293 23.796h7.416c0.217 0 0.394 0.177 0.394 0.394v7.416c0 0.217-0.177 0.394-0.394 0.394h-7.416c-0.217 0-0.394-0.177-0.394-0.394v-7.416c0-0.217 0.178-0.394 0.394-0.394zM12.293 11.898h7.416c0.217 0 0.394 0.178 0.394 0.394v7.415c0 0.218-0.177 0.394-0.394 0.394h-7.416c-0.217 0-0.394-0.177-0.394-0.394v-7.415c0-0.217 0.178-0.394 0.394-0.394zM12.293 0h7.416c0.217 0 0.394 0.177 0.394 0.394v7.415c0 0.218-0.177 0.394-0.394 0.394h-7.416c-0.217 0-0.394-0.177-0.394-0.394v-7.415c0-0.217 0.178-0.394 0.394-0.394zM0.394 23.796h7.415c0.218 0 0.394 0.177 0.394 0.394v7.416c0 0.217-0.177 0.394-0.394 0.394h-7.415c-0.217 0-0.394-0.177-0.394-0.394v-7.416c0-0.217 0.177-0.394 0.394-0.394zM0.394 11.898h7.415c0.218 0 0.394 0.178 0.394 0.394v7.415c0 0.218-0.177 0.394-0.394 0.394h-7.415c-0.217 0-0.394-0.177-0.394-0.394v-7.415c0-0.217 0.177-0.394 0.394-0.394z"></path>
</symbol>
<symbol id="icon-comment" viewBox="0 0 32 32">
<path d="M29.333 5.333c0-1.467-1.2-2.667-2.667-2.667h-21.333c-1.467 0-2.667 1.2-2.667 2.667v16c0 1.467 1.2 2.667 2.667 2.667h18.667l5.333 5.333v-24z"></path>
</symbol>
<symbol id="icon-like" viewBox="0 0 32 32">
<path d="M2.667 11.2c-0-0.957 0.19-1.904 0.561-2.786s0.912-1.682 1.595-2.352c0.683-0.67 1.492-1.198 2.381-1.552s1.84-0.527 2.796-0.509c1.132-0.006 2.252 0.229 3.287 0.688s1.959 1.134 2.713 1.978c0.754-0.844 1.679-1.519 2.713-1.978s2.155-0.694 3.287-0.688c0.957-0.018 1.907 0.155 2.796 0.509s1.698 0.881 2.381 1.552c0.683 0.67 1.225 1.47 1.595 2.352s0.561 1.83 0.561 2.786c0 7.141-8.505 12.533-13.333 16.8-4.817-4.303-13.333-9.653-13.333-16.8z"></path>
</symbol>
<symbol id="icon-list" viewBox="0 0 32 32">
<path d="M0 1.333h8v8h-8v-8z"></path>
<path d="M0 12h8v8h-8v-8z"></path>
<path d="M0 22.667h8v8h-8v-8z"></path>
<path d="M12 14.667h20v2.667h-20v-2.667z"></path>
<path d="M12 25.333h20v2.667h-20v-2.667z"></path>
<path d="M12 4h20v2.667h-20v-2.667z"></path>
</symbol>
<symbol id="icon-logo" viewBox="0 0 32 32">
<path fill="#fff" style="fill: var(--color1, #fff)" d="M13.101 1.673c1.794-1.036 4.003-1.036 5.797 0l8.059 4.653c1.794 1.036 2.899 2.949 2.899 5.020v9.306c0 2.071-1.105 3.985-2.899 5.020l-8.059 4.653c-1.794 1.036-4.003 1.036-5.797 0l-8.059-4.653c-1.794-1.036-2.899-2.949-2.899-5.020v-9.306c0-2.071 1.105-3.985 2.899-5.020l8.059-4.653z"></path>
<path fill="#066c61" style="fill: var(--color2, #066c61)" d="M29.856 20.529v0.124c0 2.071-1.105 3.985-2.899 5.020l-8.059 4.653c-1.794 1.036-4.003 1.036-5.797 0l-8.059-4.653c-0.133-0.077-0.262-0.158-0.387-0.244l-0.597-2.009 1.971-7.652 1.739-2.783 5.101 5.217 6.261-9.275 10.726 11.602z"></path>
<path fill="#b3dbc9" style="fill: var(--color3, #b3dbc9)" d="M4.214 25.094c-0.822-0.69-1.432-1.591-1.77-2.599l-0.009-0.118c0.271-3.014 1.438-9.206 3.942-9.855 3.246-0.842 4.87 9.855 4.87 9.855s1.442-14.897 5.913-14.609c3.594 0.232 4.985 7.652 4.058 21.217l-0.005 0.005-2.314 1.336c-0.786 0.454-1.653 0.709-2.529 0.765 1.617-2.815 1.464-13.928 0.674-17.99-0.462 1.279-0.826 3.247-1.218 5.37-0.889 4.806-1.925 10.409-4.579 10.63-0.098 0.008-0.196 0.003-0.292-0.015l-0.878-0.507c-1.671-1.618-2.962-6.584-3.467-9.334-0.092 2.486-1.029 5.329-1.497 6.467l-0.070-0.040c-0.060-0.035-0.12-0.071-0.179-0.108l-0.649-0.472z"></path>
</symbol>
</defs>
</svg>
